<svg width="51" height="51" viewBox="0 0 51 51" fill="none" xmlns="http://www.w3.org/2000/svg">
<mask id="mask0_82_80" style="mask-type:luminance" maskUnits="userSpaceOnUse" x="0" y="0" width="51" height="51">
<path d="M51 0H0V51H51V0Z" fill="white"/>
</mask>
<g mask="url(#mask0_82_80)">
<path d="M6.54725 28.9568L21.4241 25.9813C22.7525 25.7159 22.7525 25.284 21.4241 25.0187L6.54725 22.0431C5.66113 21.8662 4.79811 21.0024 4.6212 20.1171L1.64567 5.24024C1.37952 3.91105 2.16284 3.29348 3.39402 3.86165L48.7912 24.8139C49.6112 25.1924 49.6112 25.8076 48.7912 26.1861L3.39402 47.1383C2.16284 47.7065 1.37952 47.0889 1.64567 45.7597L4.6212 30.8829C4.79811 29.9976 5.66113 29.1337 6.54725 28.9568Z" fill="#98C0ED"/>
</g>
</svg>
